<?xml version="1.0" encoding="utf-8"?>
<!-- Generator: Adobe Illustrator 22.1.0, SVG Export Plug-In . SVG Version: 6.00 Build 0)  -->
<svg version="1.1" id="ERGO_x5F_Icons" xmlns="http://www.w3.org/2000/svg" xmlns:xlink="http://www.w3.org/1999/xlink" x="0px"
	 y="0px" viewBox="0 0 276.4 255.1" style="enable-background:new 0 0 276.4 255.1;" xml:space="preserve">
<path d="M96.3,176.9l4.8,5.2c-4.1,3.7-8.9,5.7-14,5.7c-9.8,0-18.1-7.3-21.6-17.7h-8.8V163H64c-0.1-1.2-0.2-2.3-0.2-3.5
	c0-1.2,0.1-2.4,0.2-3.6h-7.3v-7.1h8.8c3.5-10.4,11.8-17.7,21.6-17.7c5.4,0,10.6,2.2,14.7,6.3l-5,5c-2.8-2.8-6.2-4.3-9.7-4.3
	c-6,0-11.2,4.3-14,10.6h19.1v7.1h-21c-0.2,1.2-0.2,2.3-0.2,3.6c0,1.2,0.1,2.4,0.2,3.5h21v7.1H73.1c2.8,6.4,8,10.6,14,10.6
	C90.4,180.7,93.6,179.4,96.3,176.9z M65.8,78.1C65.8,78.1,65.8,78.1,65.8,78.1C65.8,78.1,65.8,78.1,65.8,78.1l132.5,16.3l1.7-14.1
	L67.6,64c-0.6-0.1-1.2-0.1-1.7-0.1c-7,0-12.9,5.1-14,11.9c0,0.2-0.1,0.4-0.1,0.5l-2.4,19.3h14.3L65.8,78.1z M97.7,41.4
	C97.7,41.4,97.7,41.4,97.7,41.4C97.7,41.4,97.7,41.4,97.7,41.4l78.4,27l4.6-13.4l-78.4-27c-1.5-0.5-3.1-0.8-4.6-0.8
	c-6.1,0-11.5,3.9-13.4,9.6l-6.1,17.7l14.4,1.8L97.7,41.4z M219.7,142.4c0,0,0-22,0-22c0-7.8-6.3-14.2-14.2-14.2h-163
	c-7.8,0-14.2,6.3-14.2,14.2v77.9c0,7.8,6.4,14.2,14.2,14.2H140c-1-3.3-1.6-6.8-1.6-10.5c0-1.2,0.1-2.5,0.2-3.7h-96c0,0,0,0,0,0
	v-77.9c0,0,0,0,0,0h163c0,0,0,22,0,22c-12.9,2.6-23,12.3-26.6,24.7c4.8,0.7,9.4,2.4,13.4,4.9c2.3-9.3,10.6-16.2,20.6-16.2
	c11.7,0,21,9.5,21,21.2c0,11.7-9.3,21.2-21,21.2c-1.4,0-2.8-0.1-4.1-0.4c0.2,1.3,0.2,2.7,0.2,4.1c0,3.5-0.5,6.9-1.5,10.1
	c0,0.1-0.1,0.2-0.1,0.3c0.4,0,0.8-0.1,1.2-0.2c1.4,0.2,2.8,0.3,4.3,0.3c19.6,0,35.2-15.9,35.2-35.4C248,160,235.9,145.7,219.7,142.4
	z M198.3,202.1c0,13.6-11,24.7-24.7,24.7c-13.6,0-24.7-11-24.7-24.7c0-13.6,11-24.7,24.7-24.7C187.3,177.4,198.3,188.5,198.3,202.1z
	 M185.6,202.1c0-6.6-5.3-11.9-11.9-11.9c-6.6,0-11.9,5.3-11.9,11.9c0,6.6,5.3,11.9,11.9,11.9C180.2,214,185.6,208.7,185.6,202.1z"/>
</svg>
